<svg width="29" height="28" viewBox="0 0 29 28" fill="none" xmlns="http://www.w3.org/2000/svg">
<path d="M4.2497 22.6652V28L6.39579 26.7123L13.1415 22.6652H19.8319C21.3944 22.6652 22.665 21.3945 22.665 19.8321V8.49956C22.665 6.93709 21.3944 5.66643 19.8319 5.66643H2.83313C1.27066 5.66643 0 6.93709 0 8.49956V19.8321C0 21.3945 1.27066 22.6652 2.83313 22.6652H4.2497ZM2.83313 8.49956H19.8319V19.8321H12.3567L7.08283 22.9967V19.8321H2.83313V8.49956Z" fill="#ffffff"/>
<path d="M25.4979 0H8.49915C6.93667 0 5.66602 1.27066 5.66602 2.83313H22.6648C24.2273 2.83313 25.4979 4.10379 25.4979 5.66626V16.9988C27.0604 16.9988 28.3311 15.7281 28.3311 14.1657V2.83313C28.3311 1.27066 27.0604 0 25.4979 0Z" fill="#ffffff"/>
</svg>
