<svg width="18" height="18" viewBox="0 0 18 18" fill="none" xmlns="http://www.w3.org/2000/svg">
<path d="M1 8.66667C1 5.52417 1 3.9525 1.9376 2.97667C2.8744 2 4.3832 2 7.4 2H10.6C13.6168 2 15.1256 2 16.0624 2.97667C17 3.9525 17 5.52417 17 8.66667V10.3333C17 13.4758 17 15.0475 16.0624 16.0233C15.1256 17 13.6168 17 10.6 17H7.4C4.3832 17 2.8744 17 1.9376 16.0233C1 15.0475 1 13.4758 1 10.3333V8.66667Z" stroke="#284473"/>
<path d="M4.55263 2.15385V1M12.4474 2.15385V1M1 6H16" stroke="#284473" stroke-linecap="round"/>
<path d="M14 13.1667C14 13.3877 13.9122 13.5996 13.7559 13.7559C13.5996 13.9122 13.3877 14 13.1667 14C12.9457 14 12.7337 13.9122 12.5774 13.7559C12.4211 13.5996 12.3333 13.3877 12.3333 13.1667C12.3333 12.9457 12.4211 12.7337 12.5774 12.5774C12.7337 12.4211 12.9457 12.3333 13.1667 12.3333C13.3877 12.3333 13.5996 12.4211 13.7559 12.5774C13.9122 12.7337 14 12.9457 14 13.1667ZM14 9.83333C14 10.0543 13.9122 10.2663 13.7559 10.4226C13.5996 10.5789 13.3877 10.6667 13.1667 10.6667C12.9457 10.6667 12.7337 10.5789 12.5774 10.4226C12.4211 10.2663 12.3333 10.0543 12.3333 9.83333C12.3333 9.61232 12.4211 9.40036 12.5774 9.24408C12.7337 9.0878 12.9457 9 13.1667 9C13.3877 9 13.5996 9.0878 13.7559 9.24408C13.9122 9.40036 14 9.61232 14 9.83333ZM9.83333 13.1667C9.83333 13.3877 9.74554 13.5996 9.58926 13.7559C9.43297 13.9122 9.22101 14 9 14C8.77899 14 8.56702 13.9122 8.41074 13.7559C8.25446 13.5996 8.16667 13.3877 8.16667 13.1667C8.16667 12.9457 8.25446 12.7337 8.41074 12.5774C8.56702 12.4211 8.77899 12.3333 9 12.3333C9.22101 12.3333 9.43297 12.4211 9.58926 12.5774C9.74554 12.7337 9.83333 12.9457 9.83333 13.1667ZM9.83333 9.83333C9.83333 10.0543 9.74554 10.2663 9.58926 10.4226C9.43297 10.5789 9.22101 10.6667 9 10.6667C8.77899 10.6667 8.56702 10.5789 8.41074 10.4226C8.25446 10.2663 8.16667 10.0543 8.16667 9.83333C8.16667 9.61232 8.25446 9.40036 8.41074 9.24408C8.56702 9.0878 8.77899 9 9 9C9.22101 9 9.43297 9.0878 9.58926 9.24408C9.74554 9.40036 9.83333 9.61232 9.83333 9.83333ZM5.66667 13.1667C5.66667 13.3877 5.57887 13.5996 5.42259 13.7559C5.26631 13.9122 5.05435 14 4.83333 14C4.61232 14 4.40036 13.9122 4.24408 13.7559C4.0878 13.5996 4 13.3877 4 13.1667C4 12.9457 4.0878 12.7337 4.24408 12.5774C4.40036 12.4211 4.61232 12.3333 4.83333 12.3333C5.05435 12.3333 5.26631 12.4211 5.42259 12.5774C5.57887 12.7337 5.66667 12.9457 5.66667 13.1667ZM5.66667 9.83333C5.66667 10.0543 5.57887 10.2663 5.42259 10.4226C5.26631 10.5789 5.05435 10.6667 4.83333 10.6667C4.61232 10.6667 4.40036 10.5789 4.24408 10.4226C4.0878 10.2663 4 10.0543 4 9.83333C4 9.61232 4.0878 9.40036 4.24408 9.24408C4.40036 9.0878 4.61232 9 4.83333 9C5.05435 9 5.26631 9.0878 5.42259 9.24408C5.57887 9.40036 5.66667 9.61232 5.66667 9.83333Z" fill="#284473"/>
</svg>
