<svg width="29" height="28" viewBox="0 0 29 28" fill="none" xmlns="http://www.w3.org/2000/svg">
<path d="M7.76433 2H8.32391C11.2709 2.43579 12.0698 4.10821 14.6378 4.10821C17.2058 4.10821 18.0048 2.43579 20.9523 2H21.2694C22.0573 2 22.8375 2.15519 23.5655 2.45672C24.2934 2.75825 24.9549 3.20021 25.512 3.75736C26.0692 4.31451 26.5111 4.97595 26.8127 5.7039C27.1142 6.43185 27.2694 7.21207 27.2694 8V8.39537C27.2694 10.2288 25.3178 12.3219 24.7431 14.3051C24.1336 16.4107 23.7161 18.1324 23.5936 19.9331C23.3062 24.1526 21.8675 26 20.322 26C18.0142 26 15.9654 16.5421 14.6776 16.5421C13.3892 16.5421 10.8344 26 8.95359 26C7.80601 26 6.31991 25.3211 5.76159 19.9331C5.53928 17.7895 5.16412 16.4891 4.53254 14.3051C3.97675 12.3851 2.10222 10.0912 2.00622 8.03221C1.97001 7.25352 2.09211 6.47557 2.36515 5.74542C2.63818 5.01526 3.05647 4.34807 3.59473 3.7842C4.13298 3.22032 4.78001 2.77148 5.49669 2.46481C6.21336 2.15814 6.98479 2.00001 7.76433 2Z" stroke="#284473" stroke-width="2.52632"/>
<path d="M9.25781 6.71347L19.6909 10.0773M9.25781 10.0773L19.6909 6.71347" stroke="#284473" stroke-width="2.52632" stroke-linecap="round"/>
</svg>
