<svg width="29" height="32" viewBox="0 0 29 32" fill="none" xmlns="http://www.w3.org/2000/svg">
<path d="M16.7921 21H12.2079V17.7921H9V13.2079H12.2079V10H16.7921V13.2079H20V17.7921H16.7921V21Z" stroke="#ffffff" stroke-width="2.5" stroke-linecap="round" stroke-linejoin="round"/>
<path d="M4.64638 24.9619L2.01409 6.12358C1.96401 5.76498 2.04852 5.40029 2.25063 5.10281C2.45275 4.80533 2.7575 4.59711 3.10361 4.52001L13.889 2.0686C14.2914 1.97713 14.7085 1.97713 15.1108 2.0686L25.8962 4.52145C26.6141 4.68411 27.0899 5.37937 26.9857 6.12502L24.3534 24.9619C24.2549 25.6744 23.6496 30 14.4999 30C5.35021 30 4.74492 25.6744 4.64638 24.9619Z" stroke="#ffffff" stroke-width="2.5" stroke-linecap="round" stroke-linejoin="round"/>
</svg>
