<svg width="27" height="28" viewBox="0 0 27 28" fill="none" xmlns="http://www.w3.org/2000/svg">
<path fill-rule="evenodd" clip-rule="evenodd" d="M2.85655 10.3169C2.85655 7.58069 3.94351 4.95655 5.8783 3.02175C7.8131 1.08696 10.4372 0 13.1735 0C15.9097 0 18.5338 1.08696 20.4686 3.02175C22.4034 4.95655 23.4904 7.58069 23.4904 10.3169V15.8645L26.1757 21.2351C26.2993 21.4823 26.3577 21.757 26.3453 22.0331C26.3329 22.3092 26.2501 22.5776 26.1047 22.8127C25.9594 23.0478 25.7564 23.2418 25.515 23.3764C25.2736 23.5109 25.0018 23.5815 24.7254 23.5815H18.8831C18.5553 24.8464 17.8167 25.9667 16.7833 26.7664C15.7499 27.5661 14.4802 28 13.1735 28C11.8667 28 10.597 27.5661 9.56362 26.7664C8.53022 25.9667 7.79162 24.8464 7.46379 23.5815H1.62147C1.34509 23.5815 1.07329 23.5109 0.831881 23.3764C0.590474 23.2418 0.387474 23.0478 0.242164 22.8127C0.0968537 22.5776 0.0140571 22.3092 0.00163787 22.0331C-0.0107814 21.757 0.0475893 21.4823 0.171206 21.2351L2.85655 15.8645V10.3169ZM10.6208 23.5815C10.8795 24.0296 11.2516 24.4016 11.6997 24.6603C12.1478 24.919 12.6561 25.0552 13.1735 25.0552C13.6909 25.0552 14.1991 24.919 14.6472 24.6603C15.0953 24.4016 15.4674 24.0296 15.7262 23.5815H10.6208ZM13.1735 2.94769C11.219 2.94769 9.34463 3.72408 7.96263 5.10608C6.58063 6.48808 5.80424 8.36247 5.80424 10.3169V15.8645C5.80421 16.3218 5.69774 16.7729 5.49326 17.1821L3.76886 20.6338H22.5795L20.8551 17.1821C20.6502 16.773 20.5432 16.3219 20.5427 15.8645V10.3169C20.5427 8.36247 19.7663 6.48808 18.3843 5.10608C17.0023 3.72408 15.1279 2.94769 13.1735 2.94769Z" fill="#284473"/>
</svg>
