<svg width="24" height="24" viewBox="0 0 24 24" fill="none" xmlns="http://www.w3.org/2000/svg">
<path fill-rule="evenodd" clip-rule="evenodd" d="M10.8257 0H13.1743C14.1779 0 15.014 4.99016e-08 15.677 0.0893024C16.378 0.18307 17.011 0.390698 17.5189 0.898605C18.0279 1.40763 18.2355 2.04056 18.3293 2.74047C18.355 2.93023 18.374 3.13228 18.3851 3.34884C19.0437 3.34884 19.5996 3.3533 20.0584 3.40019C20.5864 3.45377 21.0776 3.57098 21.5196 3.86567C21.8545 4.09005 22.1425 4.37805 22.3669 4.71405C22.6616 5.15498 22.7788 5.64614 22.8324 6.17414C22.8837 6.6787 22.8837 7.3027 22.8837 8.04949V22.3256H23.1628C23.3848 22.3256 23.5978 22.4138 23.7548 22.5708C23.9118 22.7278 24 22.9408 24 23.1628C24 23.3848 23.9118 23.5978 23.7548 23.7548C23.5978 23.9118 23.3848 24 23.1628 24H0.837209C0.615168 24 0.40222 23.9118 0.245213 23.7548C0.0882058 23.5978 0 23.3848 0 23.1628C0 22.9408 0.0882058 22.7278 0.245213 22.5708C0.40222 22.4138 0.615168 22.3256 0.837209 22.3256H1.11628V8.0506C1.11628 7.3027 1.11628 6.6787 1.16763 6.17414C1.22121 5.64614 1.33842 5.15498 1.63312 4.71293C1.85749 4.37805 2.14549 4.09005 2.48149 3.86567C2.92242 3.57098 3.41358 3.45377 3.94158 3.40019C4.39926 3.3533 4.95628 3.34884 5.61377 3.34884C5.62716 3.13228 5.64502 2.93023 5.66958 2.74158C5.76447 2.04056 5.97209 1.40763 6.48 0.899721C6.98902 0.390698 7.62195 0.18307 8.32186 0.0893024C8.98605 4.99016e-08 9.82326 0 10.8257 0ZM5.5814 5.02326C4.9306 5.02326 4.47181 5.02884 4.11126 5.06567C3.71498 5.10586 3.53191 5.1773 3.41135 5.25879C3.25893 5.36062 3.12806 5.49149 3.02623 5.64391C2.94474 5.76447 2.8733 5.94754 2.83312 6.34381C2.79181 6.75349 2.7907 7.29265 2.7907 8.09302V22.3256H5.5814V15.0698H4.74419C4.52214 15.0698 4.3092 14.9816 4.15219 14.8246C3.99518 14.6675 3.90698 14.4546 3.90698 14.2326C3.90698 14.0105 3.99518 13.7976 4.15219 13.6406C4.3092 13.4836 4.52214 13.3953 4.74419 13.3953H5.5814V11.7209H4.74419C4.52214 11.7209 4.3092 11.6327 4.15219 11.4757C3.99518 11.3187 3.90698 11.1058 3.90698 10.8837C3.90698 10.6617 3.99518 10.4487 4.15219 10.2917C4.3092 10.1347 4.52214 10.0465 4.74419 10.0465H5.5814V8.37209H4.74419C4.52214 8.37209 4.3092 8.28389 4.15219 8.12688C3.99518 7.96987 3.90698 7.75693 3.90698 7.53488C3.90698 7.31284 3.99518 7.0999 4.15219 6.94289C4.3092 6.78588 4.52214 6.69767 4.74419 6.69767H5.5814V5.24428V5.02326ZM7.25581 22.3256H11.1628V19.814C11.1628 19.5919 11.251 19.379 11.408 19.222C11.565 19.065 11.778 18.9767 12 18.9767C12.222 18.9767 12.435 19.065 12.592 19.222C12.749 19.379 12.8372 19.5919 12.8372 19.814V22.3256H16.7442V5.30233C16.7442 4.22623 16.742 3.50288 16.6694 2.96372C16.6002 2.44912 16.4807 2.22809 16.3345 2.08298C16.1894 1.93786 15.9695 1.81842 15.4549 1.74809C14.9157 1.67665 14.1924 1.67442 13.1163 1.67442H10.8837C9.80763 1.67442 9.08428 1.67665 8.54512 1.74921C8.03051 1.81842 7.80949 1.93786 7.66437 2.08409C7.51926 2.22921 7.39981 2.44912 7.32949 2.96372C7.25916 3.50288 7.25581 4.22623 7.25581 5.30233V22.3256ZM18.4186 8.37209H19.2558C19.4779 8.37209 19.6908 8.28389 19.8478 8.12688C20.0048 7.96987 20.093 7.75693 20.093 7.53488C20.093 7.31284 20.0048 7.0999 19.8478 6.94289C19.6908 6.78588 19.4779 6.69767 19.2558 6.69767H18.4186V5.02326C19.0694 5.02326 19.5282 5.02884 19.8887 5.06567C20.285 5.10586 20.4681 5.1773 20.5898 5.25879C20.7416 5.35926 20.8722 5.49098 20.9738 5.64391C21.0553 5.76447 21.1267 5.94754 21.1669 6.34381C21.2082 6.75349 21.2093 7.29265 21.2093 8.09302V22.3256H18.4186V15.0698H19.2558C19.4779 15.0698 19.6908 14.9816 19.8478 14.8246C20.0048 14.6675 20.093 14.4546 20.093 14.2326C20.093 14.0105 20.0048 13.7976 19.8478 13.6406C19.6908 13.4836 19.4779 13.3953 19.2558 13.3953H18.4186V11.7209H19.2558C19.4779 11.7209 19.6908 11.6327 19.8478 11.4757C20.0048 11.3187 20.093 11.1058 20.093 10.8837C20.093 10.6617 20.0048 10.4487 19.8478 10.2917C19.6908 10.1347 19.4779 10.0465 19.2558 10.0465H18.4186V8.37209ZM12 3.34884C12.222 3.34884 12.435 3.43704 12.592 3.59405C12.749 3.75106 12.8372 3.964 12.8372 4.18605V5.5814H14.2326C14.4546 5.5814 14.6675 5.6696 14.8246 5.82661C14.9816 5.98362 15.0698 6.19656 15.0698 6.4186C15.0698 6.64065 14.9816 6.85359 14.8246 7.0106C14.6675 7.16761 14.4546 7.25581 14.2326 7.25581H12.8372V8.65116C12.8372 8.87321 12.749 9.08615 12.592 9.24316C12.435 9.40017 12.222 9.48837 12 9.48837C11.778 9.48837 11.565 9.40017 11.408 9.24316C11.251 9.08615 11.1628 8.87321 11.1628 8.65116V7.25581H9.76744C9.5454 7.25581 9.33245 7.16761 9.17545 7.0106C9.01844 6.85359 8.93023 6.64065 8.93023 6.4186C8.93023 6.19656 9.01844 5.98362 9.17545 5.82661C9.33245 5.6696 9.5454 5.5814 9.76744 5.5814H11.1628V4.18605C11.1628 3.964 11.251 3.75106 11.408 3.59405C11.565 3.43704 11.778 3.34884 12 3.34884ZM8.93023 12C8.93023 11.778 9.01844 11.565 9.17545 11.408C9.33245 11.251 9.5454 11.1628 9.76744 11.1628H14.2326C14.4546 11.1628 14.6675 11.251 14.8246 11.408C14.9816 11.565 15.0698 11.778 15.0698 12C15.0698 12.222 14.9816 12.435 14.8246 12.592C14.6675 12.749 14.4546 12.8372 14.2326 12.8372H9.76744C9.5454 12.8372 9.33245 12.749 9.17545 12.592C9.01844 12.435 8.93023 12.222 8.93023 12ZM8.93023 15.3488C8.93023 15.1268 9.01844 14.9138 9.17545 14.7568C9.33245 14.5998 9.5454 14.5116 9.76744 14.5116H14.2326C14.4546 14.5116 14.6675 14.5998 14.8246 14.7568C14.9816 14.9138 15.0698 15.1268 15.0698 15.3488C15.0698 15.5709 14.9816 15.7838 14.8246 15.9408C14.6675 16.0978 14.4546 16.186 14.2326 16.186H9.76744C9.5454 16.186 9.33245 16.0978 9.17545 15.9408C9.01844 15.7838 8.93023 15.5709 8.93023 15.3488Z" fill="#284473"/>
</svg>
