<svg width="29" height="28" viewBox="0 0 29 28" fill="none" xmlns="http://www.w3.org/2000/svg">
<path d="M25.1559 11.1276C25.1559 10.842 25.0425 10.5681 24.8405 10.3661C24.6385 10.1641 24.3646 10.0507 24.079 10.0507C23.7933 10.0507 23.5194 10.1641 23.3174 10.3661C23.1155 10.5681 23.002 10.842 23.002 11.1276H25.1559ZM5.05268 11.1276C5.05268 10.842 4.93921 10.5681 4.73724 10.3661C4.53527 10.1641 4.26134 10.0507 3.97572 10.0507C3.69009 10.0507 3.41616 10.1641 3.21419 10.3661C3.01222 10.5681 2.89876 10.842 2.89876 11.1276H5.05268ZM26.1898 14.7606C26.2884 14.8664 26.4073 14.9513 26.5394 15.0101C26.6715 15.069 26.8141 15.1006 26.9587 15.1032C27.1033 15.1057 27.247 15.0791 27.3811 15.025C27.5152 14.9708 27.637 14.8902 27.7392 14.7879C27.8415 14.6856 27.9221 14.5638 27.9763 14.4297C28.0305 14.2956 28.0571 14.152 28.0545 14.0074C28.052 13.8628 28.0203 13.7202 27.9614 13.5881C27.9026 13.456 27.8177 13.3371 27.7119 13.2385L26.1898 14.7606ZM14.0273 1.07601L14.7884 0.314961C14.5865 0.113281 14.3127 0 14.0273 0C13.7419 0 13.4682 0.113281 13.2663 0.314961L14.0273 1.07601ZM0.342772 13.2385C0.236962 13.3371 0.152095 13.456 0.0932323 13.5881C0.0343701 13.7202 0.00271897 13.8628 0.000167605 14.0074C-0.00238376 14.152 0.0242166 14.2956 0.078382 14.4297C0.132547 14.5638 0.213168 14.6856 0.315434 14.7879C0.4177 14.8902 0.539518 14.9708 0.673618 15.025C0.807718 15.0791 0.951355 15.1057 1.09596 15.1032C1.24056 15.1006 1.38317 15.069 1.51528 15.0101C1.64738 14.9513 1.76628 14.8664 1.86488 14.7606L0.342772 13.2385ZM6.84761 28H21.2071V25.8461H6.84761V28ZM25.1559 24.0511V11.1276H23.002V24.0511H25.1559ZM5.05268 24.0511V11.1276H2.89876V24.0511H5.05268ZM27.7119 13.2385L14.7884 0.314961L13.2663 1.83706L26.1898 14.7606L27.7119 13.2385ZM13.2663 0.314961L0.342772 13.2385L1.86488 14.7606L14.7884 1.83706L13.2663 0.314961ZM21.2071 28C22.2544 28 23.2588 27.584 23.9993 26.8434C24.7399 26.1029 25.1559 25.0984 25.1559 24.0511H23.002C23.002 25.042 22.1979 25.8461 21.2071 25.8461V28ZM6.84761 25.8461C5.8568 25.8461 5.05268 25.042 5.05268 24.0511H2.89876C2.89876 25.0984 3.31479 26.1029 4.05535 26.8434C4.7959 27.584 5.80031 28 6.84761 28V25.8461Z" fill="white"/>
</svg>
