<svg width="20" height="24" viewBox="0 0 20 24" fill="none" xmlns="http://www.w3.org/2000/svg">
<path d="M11.1335 14.4H6.3335C6.01524 14.4 5.71001 14.5264 5.48497 14.7515C5.25992 14.9765 5.1335 15.2817 5.1335 15.6C5.1335 15.9183 5.25992 16.2235 5.48497 16.4485C5.71001 16.6736 6.01524 16.8 6.3335 16.8H11.1335C11.4518 16.8 11.757 16.6736 11.982 16.4485C12.2071 16.2235 12.3335 15.9183 12.3335 15.6C12.3335 15.2817 12.2071 14.9765 11.982 14.7515C11.757 14.5264 11.4518 14.4 11.1335 14.4ZM15.9335 2.4H14.5175C14.2699 1.69974 13.8118 1.0932 13.206 0.663526C12.6001 0.233854 11.8762 0.00208741 11.1335 0H8.7335C7.99076 0.00208741 7.26686 0.233854 6.66102 0.663526C6.05518 1.0932 5.59707 1.69974 5.3495 2.4H3.9335C2.97872 2.4 2.06304 2.77928 1.38791 3.45442C0.712781 4.12955 0.333496 5.04522 0.333496 6V20.4C0.333496 21.3548 0.712781 22.2705 1.38791 22.9456C2.06304 23.6207 2.97872 24 3.9335 24H15.9335C16.8883 24 17.804 23.6207 18.4791 22.9456C19.1542 22.2705 19.5335 21.3548 19.5335 20.4V6C19.5335 5.04522 19.1542 4.12955 18.4791 3.45442C17.804 2.77928 16.8883 2.4 15.9335 2.4ZM7.5335 3.6C7.5335 3.28174 7.65992 2.97652 7.88497 2.75147C8.11001 2.52643 8.41524 2.4 8.7335 2.4H11.1335C11.4518 2.4 11.757 2.52643 11.982 2.75147C12.2071 2.97652 12.3335 3.28174 12.3335 3.6V4.8H7.5335V3.6ZM17.1335 20.4C17.1335 20.7183 17.0071 21.0235 16.782 21.2485C16.557 21.4736 16.2518 21.6 15.9335 21.6H3.9335C3.61524 21.6 3.31001 21.4736 3.08497 21.2485C2.85992 21.0235 2.7335 20.7183 2.7335 20.4V6C2.7335 5.68174 2.85992 5.37652 3.08497 5.15147C3.31001 4.92643 3.61524 4.8 3.9335 4.8H5.1335V6C5.1335 6.31826 5.25992 6.62348 5.48497 6.84853C5.71001 7.07357 6.01524 7.2 6.3335 7.2H13.5335C13.8518 7.2 14.157 7.07357 14.382 6.84853C14.6071 6.62348 14.7335 6.31826 14.7335 6V4.8H15.9335C16.2518 4.8 16.557 4.92643 16.782 5.15147C17.0071 5.37652 17.1335 5.68174 17.1335 6V20.4ZM13.5335 9.6H6.3335C6.01524 9.6 5.71001 9.72643 5.48497 9.95147C5.25992 10.1765 5.1335 10.4817 5.1335 10.8C5.1335 11.1183 5.25992 11.4235 5.48497 11.6485C5.71001 11.8736 6.01524 12 6.3335 12H13.5335C13.8518 12 14.157 11.8736 14.382 11.6485C14.6071 11.4235 14.7335 11.1183 14.7335 10.8C14.7335 10.4817 14.6071 10.1765 14.382 9.95147C14.157 9.72643 13.8518 9.6 13.5335 9.6Z" fill="#284473"/>
</svg>
