<svg width="33" height="28" viewBox="0 0 33 28" fill="none" xmlns="http://www.w3.org/2000/svg">
<path d="M23.6306 0C20.6184 0 17.9811 1.29531 16.3372 3.48478C14.6933 1.29531 12.056 0 9.0438 0C6.64606 0.00270255 4.34731 0.956397 2.65185 2.65185C0.956397 4.34731 0.00270255 6.64606 0 9.0438C0 19.2545 15.1396 27.5194 15.7843 27.8607C15.9543 27.9522 16.1442 28 16.3372 28C16.5301 28 16.7201 27.9522 16.89 27.8607C17.5348 27.5194 32.6744 19.2545 32.6744 9.0438C32.6717 6.64606 31.718 4.34731 30.0225 2.65185C28.3271 0.956397 26.0283 0.00270255 23.6306 0ZM16.3372 25.4977C13.6736 23.9456 2.33388 16.8754 2.33388 9.0438C2.3362 7.26493 3.04388 5.55958 4.30173 4.30173C5.55958 3.04388 7.26493 2.3362 9.0438 2.33388C11.8809 2.33388 14.2629 3.84507 15.2578 6.27231C15.3457 6.48634 15.4952 6.6694 15.6874 6.79824C15.8796 6.92707 16.1058 6.99586 16.3372 6.99586C16.5686 6.99586 16.7947 6.92707 16.9869 6.79824C17.1791 6.6694 17.3287 6.48634 17.4166 6.27231C18.4114 3.8407 20.7934 2.33388 23.6306 2.33388C25.4094 2.3362 27.1148 3.04388 28.3726 4.30173C29.6305 5.55958 30.3382 7.26493 30.3405 9.0438C30.3405 16.8638 18.9978 23.9442 16.3372 25.4977Z" fill="#ffffff"/>
</svg>
