<svg width="30" height="30" viewBox="0 0 30 30" fill="none" xmlns="http://www.w3.org/2000/svg">
<path d="M18.8361 1C17.0558 1 15.6194 1 14.4902 1.15237C13.3182 1.30865 12.331 1.64726 11.547 2.42995C10.8646 3.11367 10.5182 3.95367 10.3371 4.94084C10.1613 5.90065 10.1275 7.07405 10.1196 8.48316C10.1183 8.74221 10.2198 8.9912 10.402 9.17535C10.5842 9.3595 10.8321 9.46373 11.0912 9.46512C11.3502 9.4665 11.5992 9.36492 11.7834 9.18272C11.9675 9.00052 12.0717 8.75263 12.0731 8.49358C12.0809 7.07014 12.1174 6.06084 12.2581 5.29377C12.3948 4.55665 12.6123 4.12819 12.9288 3.81172C13.2895 3.45098 13.7961 3.21656 14.752 3.08763C15.7353 2.95609 17.0389 2.95349 18.9077 2.95349H20.2101C22.0802 2.95349 23.3838 2.95609 24.3671 3.08763C25.323 3.21656 25.8283 3.45228 26.1903 3.81172C26.5498 4.17247 26.7842 4.67777 26.9131 5.63498C27.046 6.61693 27.0473 7.92186 27.0473 9.7907V20.2093C27.0473 22.0781 27.046 23.3818 26.9131 24.3663C26.7842 25.3222 26.5498 25.8275 26.189 26.1883C25.8283 26.549 25.323 26.7834 24.3671 26.9124C23.3838 27.0439 22.0802 27.0465 20.2101 27.0465H18.9077C17.0389 27.0465 15.7353 27.0439 14.7507 26.9124C13.7961 26.7834 13.2895 26.5477 12.9288 26.1883C12.6123 25.8705 12.3948 25.4433 12.2581 24.7062C12.1174 23.9392 12.0809 22.9299 12.0731 21.5064C12.0724 21.3782 12.0465 21.2513 11.9968 21.133C11.9471 21.0148 11.8745 20.9075 11.7834 20.8173C11.6922 20.7271 11.5841 20.6557 11.4654 20.6072C11.3466 20.5588 11.2194 20.5342 11.0912 20.5349C10.9629 20.5356 10.836 20.5615 10.7178 20.6112C10.5995 20.6609 10.4923 20.7335 10.402 20.8246C10.3118 20.9158 10.2405 21.0239 10.192 21.1427C10.1435 21.2614 10.119 21.3886 10.1196 21.5168C10.1275 22.926 10.1613 24.0993 10.3371 25.0592C10.5195 26.0463 10.8646 26.8863 11.5483 27.57C12.331 28.354 13.3195 28.69 14.4916 28.8489C15.6194 29 17.0558 29 18.8361 29H20.2817C22.0633 29 23.4984 29 24.6276 28.8489C25.7996 28.69 26.7868 28.354 27.5708 27.57C28.3548 26.786 28.6908 25.7989 28.8497 24.6268C29.0008 23.4977 29.0008 22.0612 29.0008 20.2809V9.71907C29.0008 7.93879 29.0008 6.50233 28.8497 5.37321C28.6921 4.20112 28.3548 3.21395 27.5708 2.42995C26.7868 1.64595 25.7996 1.30995 24.6276 1.15237C23.4984 1 22.062 1 20.2817 1H18.8361Z" fill="#ffffff" stroke="#ffffff"/>
<path d="M18.9077 14.0233C19.1668 14.0233 19.4152 14.1262 19.5984 14.3093C19.7815 14.4925 19.8844 14.741 19.8844 15C19.8844 15.2591 19.7815 15.5075 19.5984 15.6907C19.4152 15.8738 19.1668 15.9768 18.9077 15.9768H4.61728L7.17114 18.1647C7.36802 18.3332 7.48988 18.5731 7.5099 18.8315C7.52993 19.0899 7.44649 19.3456 7.27794 19.5425C7.10938 19.7394 6.86952 19.8613 6.61112 19.8813C6.35272 19.9013 6.09695 19.8179 5.90008 19.6493L1.34194 15.7423C1.23471 15.6506 1.14862 15.5368 1.08959 15.4087C1.03057 15.2805 1 15.1411 1 15C1 14.8589 1.03057 14.7195 1.08959 14.5914C1.14862 14.4632 1.23471 14.3494 1.34194 14.2577L5.90008 10.3507C5.99756 10.2672 6.11053 10.2038 6.23253 10.164C6.35453 10.1242 6.48318 10.1088 6.61112 10.1187C6.73907 10.1287 6.86381 10.1637 6.97822 10.2218C7.09263 10.2799 7.19448 10.36 7.27794 10.4575C7.3614 10.555 7.42484 10.6679 7.46464 10.7899C7.50444 10.912 7.51982 11.0406 7.5099 11.1685C7.49999 11.2965 7.46497 11.4212 7.40684 11.5356C7.34872 11.6501 7.26863 11.7519 7.17114 11.8354L4.61859 14.0233H18.9077Z" fill="#ffffff" stroke="#ffffff"/>
</svg>
