<svg width="16" height="19" viewBox="0 0 16 19" fill="none" xmlns="http://www.w3.org/2000/svg">
<path d="M4.84615 9.05769C3.9281 9.05769 3.04764 8.693 2.39848 8.04383C1.74931 7.39467 1.38462 6.51421 1.38462 5.59615V2.82692C1.38462 2.64331 1.45755 2.46722 1.58739 2.33739C1.71722 2.20755 1.89331 2.13462 2.07692 2.13462H2.76923C2.95284 2.13462 3.12893 2.06168 3.25877 1.93184C3.3886 1.80201 3.46154 1.62592 3.46154 1.44231C3.46154 1.2587 3.3886 1.08261 3.25877 0.952772C3.12893 0.822939 2.95284 0.75 2.76923 0.75H2.07692C1.52609 0.75 0.997815 0.968818 0.608317 1.35832C0.218818 1.74782 0 2.27609 0 2.82692V5.59615C0.000889907 6.37828 0.191611 7.1485 0.555784 7.84067C0.919957 8.53284 1.4467 9.12627 2.09077 9.57C2.70957 10.1156 3.21141 10.7808 3.566 11.5257C3.92058 12.2706 4.12055 13.0796 4.15385 13.9038C4.15385 15.1891 4.66442 16.4218 5.57325 17.3306C6.48208 18.2394 7.71472 18.75 9 18.75C10.2853 18.75 11.5179 18.2394 12.4267 17.3306C13.3356 16.4218 13.8462 15.1891 13.8462 13.9038V13.1146C14.4988 12.9461 15.0675 12.5454 15.4458 11.9875C15.8241 11.4297 15.9859 10.753 15.901 10.0844C15.8161 9.41574 15.4902 8.80103 14.9845 8.35547C14.4787 7.90991 13.8279 7.66409 13.1538 7.66409C12.4798 7.66409 11.829 7.90991 11.3232 8.35547C10.8175 8.80103 10.4916 9.41574 10.4067 10.0844C10.3218 10.753 10.4836 11.4297 10.8619 11.9875C11.2402 12.5454 11.8089 12.9461 12.4615 13.1146V13.9038C12.4615 14.8219 12.0968 15.7024 11.4477 16.3515C10.7985 17.0007 9.91806 17.3654 9 17.3654C8.08194 17.3654 7.20149 17.0007 6.55232 16.3515C5.90316 15.7024 5.53846 14.8219 5.53846 13.9038C5.57351 13.0785 5.77564 12.2689 6.13263 11.524C6.48963 10.7791 6.99405 10.1143 7.61539 9.57C8.2569 9.12473 8.78094 8.53063 9.14265 7.83855C9.50437 7.14648 9.69297 6.37705 9.69231 5.59615V2.82692C9.69231 2.27609 9.47349 1.74782 9.08399 1.35832C8.69449 0.968818 8.16622 0.75 7.61539 0.75H6.92308C6.73947 0.75 6.56337 0.822939 6.43354 0.952772C6.30371 1.08261 6.23077 1.2587 6.23077 1.44231C6.23077 1.62592 6.30371 1.80201 6.43354 1.93184C6.56337 2.06168 6.73947 2.13462 6.92308 2.13462H7.61539C7.799 2.13462 7.97509 2.20755 8.10492 2.33739C8.23475 2.46722 8.30769 2.64331 8.30769 2.82692V5.59615C8.30769 6.05073 8.21816 6.50085 8.0442 6.92083C7.87024 7.3408 7.61526 7.7224 7.29383 8.04383C6.9724 8.36526 6.5908 8.62024 6.17083 8.7942C5.75085 8.96816 5.30073 9.05769 4.84615 9.05769ZM13.1538 11.8269C12.7866 11.8269 12.4344 11.681 12.1748 11.4214C11.9151 11.1617 11.7692 10.8095 11.7692 10.4423C11.7692 10.0751 11.9151 9.7229 12.1748 9.46324C12.4344 9.20357 12.7866 9.05769 13.1538 9.05769C13.5211 9.05769 13.8733 9.20357 14.1329 9.46324C14.3926 9.7229 14.5385 10.0751 14.5385 10.4423C14.5385 10.8095 14.3926 11.1617 14.1329 11.4214C13.8733 11.681 13.5211 11.8269 13.1538 11.8269Z" fill="#284473"/>
</svg>
