<svg width="44" height="45" viewBox="0 0 44 45" fill="none" xmlns="http://www.w3.org/2000/svg">
<path fill-rule="evenodd" clip-rule="evenodd" d="M9.43212 7.38144C7.43147 7.65742 6.28501 8.17316 5.44589 9.03453L5.44497 9.03547C4.59985 9.90152 4.08983 11.0934 3.81829 13.1641C3.54146 15.2752 3.53835 18.057 3.53835 21.9672V26.0697C3.53835 29.9799 3.54146 32.7617 3.81829 34.8728C4.08983 36.9435 4.59985 38.1353 5.44497 39.0014L5.44589 39.0023C6.28501 39.8637 7.43147 40.3794 9.43212 40.6554C11.4811 40.9381 14.1843 40.9415 17.9999 40.9415H25.9999C29.8155 40.9415 32.5187 40.9381 34.5677 40.6554C36.5683 40.3794 37.7148 39.8637 38.5539 39.0023L38.5548 39.0014C39.3999 38.1353 39.9099 36.9435 40.1815 34.8728C40.4583 32.7617 40.4614 29.9799 40.4614 26.0697V21.9672C40.4614 18.057 40.4583 15.2752 40.1815 13.1641C39.9099 11.0934 39.3999 9.90152 38.5548 9.03547L38.5539 9.03453C37.7148 8.17316 36.5683 7.65742 34.5677 7.38144C32.5187 7.09879 29.8155 7.09536 25.9999 7.09536H17.9999C14.1843 7.09536 11.4811 7.09879 9.43212 7.38144ZM17.8818 4.01843H26.118C29.7888 4.0184 32.7045 4.01837 34.9881 4.33338C37.344 4.65836 39.2542 5.34446 40.757 6.88653C42.2558 8.42253 42.9178 10.3661 43.2323 12.764C43.5384 15.0984 43.5384 18.0822 43.5383 21.8539V26.183C43.5384 29.9546 43.5384 32.9385 43.2323 35.2728C42.9178 37.6708 42.2558 39.6143 40.757 41.1503C39.2542 42.6924 37.344 43.3785 34.9881 43.7035C32.7045 44.0185 29.7888 44.0185 26.118 44.0184H17.8818C14.211 44.0185 11.2952 44.0185 9.01166 43.7035C6.65579 43.3785 4.74555 42.6924 3.24281 41.1503C1.74393 39.6143 1.08194 37.6708 0.767487 35.2728C0.461372 32.9385 0.461396 29.9546 0.461426 26.1829V21.854C0.461396 18.0823 0.461372 15.0984 0.767487 12.764C1.08191 10.3663 1.7438 8.42292 3.24235 6.887C4.74516 5.3446 6.65555 4.65839 9.01166 4.33338C11.2952 4.01837 14.211 4.0184 17.8818 4.01843Z" fill="#808080"/>
<path fill-rule="evenodd" clip-rule="evenodd" d="M11.9999 0.941528C12.8496 0.941528 13.5383 1.63032 13.5383 2.47999V5.55691C13.5383 6.40658 12.8496 7.09538 11.9999 7.09538C11.1502 7.09538 10.4614 6.40658 10.4614 5.55691V2.47999C10.4614 1.63032 11.1502 0.941528 11.9999 0.941528ZM31.9999 0.941528C32.8496 0.941528 33.5383 1.63032 33.5383 2.47999V5.55691C33.5383 6.40658 32.8496 7.09538 31.9999 7.09538C31.1502 7.09538 30.4614 6.40658 30.4614 5.55691V2.47999C30.4614 1.63032 31.1502 0.941528 31.9999 0.941528ZM1.46143 15.8133C1.46143 14.9637 2.15022 14.2749 2.99989 14.2749H40.9999C41.8495 14.2749 42.5383 14.9637 42.5383 15.8133C42.5383 16.663 41.8495 17.3518 40.9999 17.3518H2.99989C2.15022 17.3518 1.46143 16.663 1.46143 15.8133Z" fill="#808080"/>
<path d="M34.0005 32.2236C34.0005 32.7676 33.7898 33.2894 33.4147 33.6741C33.0396 34.0587 32.5309 34.2749 32.0005 34.2749C31.4701 34.2749 30.9613 34.0587 30.5863 33.6741C30.2112 33.2894 30.0005 32.7676 30.0005 32.2236C30.0005 31.6795 30.2112 31.1578 30.5863 30.7731C30.9613 30.3884 31.4701 30.1723 32.0005 30.1723C32.5309 30.1723 33.0396 30.3884 33.4147 30.7731C33.7898 31.1578 34.0005 31.6795 34.0005 32.2236ZM34.0005 24.0184C34.0005 24.5625 33.7898 25.0842 33.4147 25.4689C33.0396 25.8536 32.5309 26.0697 32.0005 26.0697C31.4701 26.0697 30.9613 25.8536 30.5863 25.4689C30.2112 25.0842 30.0005 24.5625 30.0005 24.0184C30.0005 23.4744 30.2112 22.9527 30.5863 22.568C30.9613 22.1833 31.4701 21.9672 32.0005 21.9672C32.5309 21.9672 33.0396 22.1833 33.4147 22.568C33.7898 22.9527 34.0005 23.4744 34.0005 24.0184ZM24.0005 32.2236C24.0005 32.7676 23.7898 33.2894 23.4147 33.6741C23.0396 34.0587 22.5309 34.2749 22.0005 34.2749C21.4701 34.2749 20.9613 34.0587 20.5863 33.6741C20.2112 33.2894 20.0005 32.7676 20.0005 32.2236C20.0005 31.6795 20.2112 31.1578 20.5863 30.7731C20.9613 30.3884 21.4701 30.1723 22.0005 30.1723C22.5309 30.1723 23.0396 30.3884 23.4147 30.7731C23.7898 31.1578 24.0005 31.6795 24.0005 32.2236ZM24.0005 24.0184C24.0005 24.5625 23.7898 25.0842 23.4147 25.4689C23.0396 25.8536 22.5309 26.0697 22.0005 26.0697C21.4701 26.0697 20.9613 25.8536 20.5863 25.4689C20.2112 25.0842 20.0005 24.5625 20.0005 24.0184C20.0005 23.4744 20.2112 22.9527 20.5863 22.568C20.9613 22.1833 21.4701 21.9672 22.0005 21.9672C22.5309 21.9672 23.0396 22.1833 23.4147 22.568C23.7898 22.9527 24.0005 23.4744 24.0005 24.0184ZM14.0005 32.2236C14.0005 32.7676 13.7898 33.2894 13.4147 33.6741C13.0396 34.0587 12.5309 34.2749 12.0005 34.2749C11.4701 34.2749 10.9613 34.0587 10.5863 33.6741C10.2112 33.2894 10.0005 32.7676 10.0005 32.2236C10.0005 31.6795 10.2112 31.1578 10.5863 30.7731C10.9613 30.3884 11.4701 30.1723 12.0005 30.1723C12.5309 30.1723 13.0396 30.3884 13.4147 30.7731C13.7898 31.1578 14.0005 31.6795 14.0005 32.2236ZM14.0005 24.0184C14.0005 24.5625 13.7898 25.0842 13.4147 25.4689C13.0396 25.8536 12.5309 26.0697 12.0005 26.0697C11.4701 26.0697 10.9613 25.8536 10.5863 25.4689C10.2112 25.0842 10.0005 24.5625 10.0005 24.0184C10.0005 23.4744 10.2112 22.9527 10.5863 22.568C10.9613 22.1833 11.4701 21.9672 12.0005 21.9672C12.5309 21.9672 13.0396 22.1833 13.4147 22.568C13.7898 22.9527 14.0005 23.4744 14.0005 24.0184Z" fill="#808080"/>
</svg>
