<svg width="14" height="16" viewBox="0 0 14 16" fill="none" xmlns="http://www.w3.org/2000/svg">
<path d="M2.04211 2.04201C3.34959 0.734532 5.12291 0 6.97196 0C8.82101 0 10.5943 0.734532 11.9018 2.04201C13.2093 3.34948 13.9438 5.1228 13.9438 6.97185C13.9438 8.8209 13.2093 10.5942 11.9018 11.9017L10.9514 12.8417C10.2508 13.5287 9.342 14.4127 8.22423 15.4936C7.88829 15.8184 7.43926 16 6.97196 16C6.50465 16 6.05563 15.8184 5.71968 15.4936L2.92447 12.7744C2.57217 12.4294 2.27912 12.1387 2.04211 11.9017C1.39469 11.2543 0.881117 10.4858 0.53073 9.63988C0.180342 8.79402 0 7.88742 0 6.97185C0 6.05629 0.180342 5.14969 0.53073 4.30382C0.881117 3.45795 1.39469 2.68939 2.04211 2.04201ZM11.0523 2.89074C10.5163 2.35485 9.88009 1.92977 9.17987 1.63977C8.47965 1.34977 7.72917 1.20053 6.97127 1.20057C6.21338 1.20061 5.46291 1.34992 4.76272 1.63999C4.06253 1.93006 3.42633 2.3552 2.89044 2.89114C2.35456 3.42708 1.92948 4.06332 1.63948 4.76354C1.34948 5.46376 1.20024 6.21424 1.20027 6.97214C1.20031 7.73003 1.34963 8.4805 1.63969 9.18069C1.92976 9.88088 2.3549 10.5171 2.89084 11.053L4.08227 12.2284C4.73723 12.8697 5.56194 13.6704 6.5548 14.6304C6.66675 14.7386 6.81632 14.799 6.97196 14.799C7.1276 14.799 7.27716 14.7386 7.38911 14.6304L10.1075 11.9882C10.4838 11.6191 10.7985 11.3076 11.0523 11.053C12.1344 9.97078 12.7423 8.50306 12.7423 6.97265C12.7423 5.44225 12.1344 3.97452 11.0523 2.89234M6.97196 4.78917C7.28761 4.78917 7.60017 4.85135 7.8918 4.97214C8.18343 5.09294 8.44841 5.26999 8.67161 5.49319C8.89481 5.71639 9.07186 5.98137 9.19266 6.273C9.31345 6.56462 9.37562 6.87719 9.37562 7.19284C9.37562 7.5085 9.31345 7.82106 9.19266 8.11269C9.07186 8.40431 8.89481 8.66929 8.67161 8.89249C8.44841 9.11569 8.18343 9.29275 7.8918 9.41354C7.60017 9.53434 7.28761 9.59651 6.97196 9.59651C6.34217 9.58502 5.74205 9.32676 5.30073 8.87731C4.85941 8.42786 4.61215 7.82314 4.61215 7.19324C4.61215 6.56335 4.85941 5.95862 5.30073 5.50917C5.74205 5.05972 6.34217 4.80067 6.97196 4.78917ZM6.97196 5.99101C6.653 5.99101 6.3471 6.11771 6.12156 6.34325C5.89603 6.56879 5.76932 6.87468 5.76932 7.19364C5.76932 7.5126 5.89603 7.8185 6.12156 8.04403C6.3471 8.26957 6.653 8.39628 6.97196 8.39628C7.28544 8.38819 7.58336 8.25797 7.80222 8.03339C8.02108 7.80881 8.14356 7.50763 8.14356 7.19404C8.14356 6.88046 8.02108 6.57927 7.80222 6.35469C7.58336 6.13011 7.28544 5.9991 6.97196 5.99101Z" fill="#284473"/>
</svg>
