<svg width="27" height="24" viewBox="0 0 27 24" fill="none" xmlns="http://www.w3.org/2000/svg">
<path d="M0 2.99984C0 2.20423 0.311721 1.44121 0.866588 0.878633C1.42145 0.316054 2.17402 0 2.95872 0H22.5318C23.3165 0 24.069 0.316054 24.6239 0.878633C25.1788 1.44121 25.4905 2.20423 25.4905 2.99984V9.34382C25.4501 9.32353 25.4094 9.30383 25.3685 9.28474L24.8996 9.06506C24.5135 8.88353 24.0951 8.78306 23.6697 8.76969V2.99984C23.6697 2.36295 23.1599 1.84606 22.5318 1.84606H2.95872C2.33056 1.84606 1.82075 2.36295 1.82075 2.99984V19.1528C1.82075 19.7897 2.33056 20.3066 2.95872 20.3066H5.46225V17.076C5.46225 16.464 5.70203 15.8771 6.12885 15.4443C6.55567 15.0116 7.13457 14.7685 7.73818 14.7685H17.7523C18.0512 14.7685 18.3471 14.8281 18.6233 14.9441C18.8994 15.0601 19.1503 15.23 19.3616 15.4443C19.573 15.6586 19.7406 15.913 19.855 16.193C19.9694 16.4729 20.0282 16.773 20.0282 17.076V17.7664L19.3846 17.5957C19.0002 17.4935 18.5983 17.4784 18.2075 17.5514V17.076C18.2075 16.9536 18.1595 16.8362 18.0742 16.7497C17.9888 16.6631 17.873 16.6145 17.7523 16.6145H7.73818C7.61746 16.6145 7.50168 16.6631 7.41631 16.7497C7.33095 16.8362 7.28299 16.9536 7.28299 17.076V20.3066H15.2834C15.0362 20.8877 14.9615 21.5292 15.0685 22.1527H2.95872C2.57017 22.1527 2.18543 22.0751 1.82646 21.9243C1.4675 21.7736 1.14133 21.5526 0.866588 21.274C0.591846 20.9955 0.373908 20.6648 0.225219 20.3008C0.0765294 19.9369 0 19.5468 0 19.1528V2.99984ZM12.7452 11.0763C12.0209 11.0763 11.3262 10.7846 10.814 10.2653C10.3019 9.74599 10.0141 9.04166 10.0141 8.30725C10.0141 7.57285 10.3019 6.86852 10.814 6.34922C11.3262 5.82991 12.0209 5.53817 12.7452 5.53817C13.4696 5.53817 14.1643 5.82991 14.6764 6.34922C15.1886 6.86852 15.4764 7.57285 15.4764 8.30725C15.4764 9.04166 15.1886 9.74599 14.6764 10.2653C14.1643 10.7846 13.4696 11.0763 12.7452 11.0763ZM12.7452 12.9224C13.9525 12.9224 15.1103 12.4362 15.9639 11.5707C16.8175 10.7051 17.2971 9.53127 17.2971 8.30725C17.2971 7.08324 16.8175 5.90936 15.9639 5.04386C15.1103 4.17835 13.9525 3.69211 12.7452 3.69211C11.538 3.69211 10.3802 4.17835 9.52658 5.04386C8.67294 5.90936 8.19337 7.08324 8.19337 8.30725C8.19337 9.53127 8.67294 10.7051 9.52658 11.5707C10.3802 12.4362 11.538 12.9224 12.7452 12.9224ZM21.4393 12.6575L21.8754 11.3856C21.9567 11.1444 22.0871 10.9233 22.2581 10.7365C22.4291 10.5496 22.6369 10.4013 22.868 10.3011C23.0991 10.2008 23.3484 10.1509 23.5997 10.1546C23.851 10.1582 24.0988 10.2153 24.327 10.3222L24.7959 10.5419C25.5606 10.8991 26.2015 11.5397 26.3253 12.3907C26.9371 16.5582 23.7025 22.3225 19.8889 23.8612C19.1106 24.175 18.2503 23.9258 17.5675 23.4228L17.1487 23.1145C16.944 22.9636 16.7721 22.7717 16.6436 22.5507C16.5151 22.3297 16.4328 22.0842 16.4017 21.8296C16.3707 21.575 16.3915 21.3166 16.463 21.0705C16.5345 20.8244 16.6551 20.5958 16.8173 20.3989L17.6704 19.3744C18.0054 18.9719 18.5352 18.8021 19.0387 18.935L20.8785 19.4242C22.2696 18.5021 23.0052 17.1914 23.0853 15.4921L21.7534 14.0965C21.5749 13.9093 21.4511 13.6757 21.3956 13.4215C21.3402 13.1673 21.3553 12.9035 21.4393 12.6575Z" fill="#284473"/>
</svg>
